<svg width="47" height="34" viewBox="0 0 47 34" fill="none" xmlns="http://www.w3.org/2000/svg">
<mask id="path-1-outside-1_468_9807" maskUnits="userSpaceOnUse" x="0" y="0" width="47" height="34" fill="black">
<rect fill="white" width="47" height="34"/>
<path d="M46.2683 4.75035C46.2683 2.40267 41.0024 1 35.9116 1C30.8209 0.999693 25.555 2.40267 25.555 4.75035V9.56838C25.555 9.59415 25.5591 9.61931 25.5603 9.64477C25.5597 9.65337 25.5553 9.66042 25.5553 9.66901V14.4787C24.393 14.2986 23.1402 14.2063 21.9092 14.2063C20.8574 14.2063 19.7899 14.2741 18.7763 14.4057L18.776 10.667V10.6667V10.6658C18.776 8.69947 14.1964 7.63854 9.88798 7.63854C5.57955 7.63823 1 8.69916 1 10.6654V10.6664V10.6667V14.4627C1 14.483 1.00347 14.5026 1.00442 14.5229C1.00379 14.5302 1 14.5364 1 14.544V18.3401C1 18.3603 1.00347 18.38 1.00442 18.4002C1.00379 18.4076 1 18.4137 1 18.4214V22.2174C1 22.2377 1.00347 22.2573 1.00442 22.2776C1.00379 22.2849 1 22.2911 1 22.2987V26.0948C1 26.115 1.00347 26.1347 1.00442 26.1549C1.0041 26.1623 1 26.1684 1 26.1761V29.9722C1 31.9388 5.57955 33 9.88798 33C12.1828 33 14.334 32.7196 15.9709 32.2128C17.6389 32.7307 19.8057 33 21.9089 33C24.3533 33 26.8838 32.6367 28.6169 31.9415C30.5359 32.6137 33.1791 33 35.9115 33C41.0023 33 46.2682 31.5967 46.2682 29.2478L46.2679 24.4301C46.2679 24.4209 46.2632 24.4136 46.2625 24.4047C46.2638 24.3792 46.2679 24.3543 46.2679 24.3289V19.5109C46.2679 19.5016 46.2632 19.494 46.2625 19.4851C46.2638 19.4596 46.2679 19.4348 46.2679 19.4093V14.5916C46.2679 14.5824 46.2632 14.5747 46.2625 14.5658C46.2638 14.5403 46.2679 14.5155 46.2679 14.49V9.66893C46.2679 9.66003 46.2632 9.65236 46.2625 9.64346C46.2638 9.6183 46.2679 9.59376 46.2679 9.5683L46.2683 4.75035ZM21.9099 14.883C26.7337 14.883 30.0959 16.2191 30.1016 17.4193C30.1016 17.4202 30.1009 17.4211 30.1009 17.4217V17.4279C30.0899 18.6274 26.7298 19.9611 21.9101 19.9611C17.0826 19.9611 13.7185 18.6229 13.7185 17.4218C13.7182 16.2209 17.0828 14.883 21.9101 14.883L21.9099 14.883ZM28.0007 23.1384C27.991 23.1412 27.9812 23.1443 27.9714 23.1476C27.375 23.3636 26.658 23.5483 25.8407 23.6968C24.6472 23.911 23.2875 24.0242 21.9087 24.0242C17.0815 24.0242 13.7171 22.6856 13.7171 21.4841V18.7294C15.1567 19.9765 18.6115 20.6377 21.9095 20.6377C25.2065 20.6377 28.6595 19.9769 30.1003 18.731V21.4839C30.1006 22.053 29.3161 22.6706 28.0006 23.1385L28.0007 23.1384ZM30.1008 22.7825V25.6334C30.1008 26.3783 28.7831 27.1732 26.7441 27.6579C26.4428 27.7291 26.1386 27.792 25.841 27.846C24.6472 28.0601 23.2874 28.1736 21.909 28.1736C17.0814 28.1736 13.7166 26.8351 13.7166 25.6333V22.7929C15.1568 24.0398 18.6107 24.7009 21.9082 24.7009C23.3289 24.7009 24.7322 24.5837 25.9673 24.3622C26.8137 24.2085 27.5609 24.0162 28.1895 23.7907C28.1977 23.7885 28.2063 23.7858 28.2145 23.783C29.0352 23.4934 29.6664 23.1562 30.1003 22.7825L30.1008 22.7825ZM9.8892 8.31524C14.7168 8.31524 18.0808 9.55407 18.0808 10.666C18.0808 11.7779 14.7163 13.0167 9.8892 13.0167C5.06164 13.0167 1.69677 11.7779 1.69677 10.666C1.69677 9.55407 5.06131 8.31524 9.8892 8.31524ZM1.69677 11.8977C3.13701 13.071 6.5909 13.6934 9.8892 13.6934C13.1868 13.6934 16.6407 13.0712 18.0808 11.8977V14.5086C15.8362 14.8777 13.9621 15.5805 13.2898 16.5884C12.2103 16.7384 11.0664 16.8148 9.88895 16.8148C5.06139 16.8148 1.69734 15.5753 1.69734 14.4634L1.69677 11.8977ZM1.69677 15.6956C3.13701 16.8691 6.5909 17.4916 9.8892 17.4916C10.9716 17.4916 12.0243 17.4253 13.0304 17.3017C13.0272 17.3391 13.0228 17.3766 13.0225 17.4146C13.0225 17.4174 13.0212 17.4195 13.0212 17.422V20.4983C12.0205 20.6247 10.9703 20.6922 9.88917 20.6922C5.06161 20.6922 1.69756 19.4527 1.69756 18.3408L1.69677 15.6956ZM1.69677 19.5726C3.13701 20.7464 6.5909 21.369 9.8892 21.369C10.9681 21.369 12.0177 21.3033 13.0212 21.1803V21.4846C13.0212 21.5067 13.0247 21.5279 13.0257 21.55C13.025 21.5573 13.0212 21.5638 13.0212 21.5714V24.3756C12.0205 24.502 10.9703 24.5695 9.8892 24.5695C5.06164 24.5695 1.69758 23.33 1.69758 22.2181L1.69677 19.5726ZM1.69677 23.45C3.13701 24.6238 6.5909 25.246 9.8892 25.246C10.9681 25.246 12.0177 25.1803 13.0212 25.0573V25.6335C13.0212 25.6571 13.025 25.6798 13.026 25.7031C13.0257 25.7096 13.0222 25.7148 13.0222 25.7212V28.2499C12.0281 28.3784 10.9779 28.4465 9.88925 28.4465C5.06169 28.4465 1.69764 27.2074 1.69764 26.0951L1.69677 23.45ZM9.8892 32.3236C5.06164 32.3236 1.69758 31.0844 1.69758 29.9722V27.3269C3.13749 28.5004 6.59138 29.1229 9.8892 29.1229C10.975 29.1229 12.025 29.0564 13.0221 28.9318V29.7844C13.0221 30.6124 13.7435 31.2886 14.8808 31.8041C13.4491 32.1397 11.7208 32.3235 9.8892 32.3235V32.3236ZM21.91 32.3236C17.0825 32.3236 13.7184 30.9853 13.7184 29.7845V26.9429C15.1593 28.1891 18.6122 28.8499 21.9092 28.8499C23.3289 28.8499 24.7326 28.7327 25.968 28.5112C26.2782 28.4551 26.5947 28.3894 26.909 28.3152C28.3657 27.9688 29.4525 27.4862 30.1022 26.9201V29.7844C30.1019 30.9856 26.7373 32.3235 21.9098 32.3235L21.91 32.3236ZM45.5728 29.2482C45.5728 30.7028 41.6055 32.3236 35.9125 32.3236C33.5568 32.3236 31.2762 32.0318 29.5024 31.5148C30.3083 31.0439 30.7978 30.4656 30.7978 29.7845V27.6059C32.3434 27.9161 34.0995 28.0808 35.9124 28.0808C39.8924 28.0808 43.9787 27.223 45.5727 25.7267L45.5728 29.2482ZM45.5728 24.3289C45.5728 25.7835 41.6055 27.4043 35.9125 27.4043C34.0907 27.4043 32.3312 27.234 30.7978 26.914V25.7211C30.7978 25.7113 30.7928 25.7027 30.7922 25.6932C30.7931 25.6733 30.7969 25.6533 30.7969 25.6334V22.6829C32.3426 22.9931 34.099 23.1582 35.9125 23.1582C39.8925 23.1582 43.9788 22.301 45.5728 20.8059L45.5728 24.3289ZM45.5728 19.4093C45.5728 20.8624 41.6055 22.4813 35.9125 22.4813C34.0898 22.4813 32.3302 22.3107 30.7969 21.9908V21.5707C30.7969 21.5637 30.7931 21.5579 30.7928 21.5508C30.7937 21.5284 30.7969 21.5063 30.7969 21.4839V17.7637C32.3425 18.0738 34.099 18.2389 35.9125 18.2389C39.8925 18.2389 43.9788 17.3817 45.5728 15.8867V19.4093ZM45.5728 14.4901C45.5728 15.9431 41.6055 17.5621 35.9125 17.5621C34.0712 17.5621 32.2939 17.3881 30.7499 17.0617C30.4368 15.8826 28.5939 15.0497 26.2521 14.5987V10.9655C27.8463 12.4612 31.9326 13.3184 35.9124 13.3184C39.8923 13.3184 43.9789 12.4609 45.5735 10.9652L45.5728 14.4901ZM45.5728 9.56805C45.5728 11.0217 41.6052 12.6419 35.9117 12.6419C30.2182 12.6419 26.2514 11.022 26.2514 9.56805V6.14719C27.8456 7.64316 31.9319 8.50036 35.9117 8.50036C39.8915 8.50036 43.9783 7.64285 45.5728 6.14719V9.56805ZM35.9117 7.82389C30.2185 7.82389 26.2514 6.20397 26.2514 4.75002C26.2514 3.29637 30.2187 1.67615 35.9117 1.67615C41.6047 1.67615 45.5728 3.29606 45.5728 4.75002C45.5728 6.20397 41.6052 7.82389 35.9117 7.82389Z"/>
</mask>
<path d="M46.2683 4.75035C46.2683 2.40267 41.0024 1 35.9116 1C30.8209 0.999693 25.555 2.40267 25.555 4.75035V9.56838C25.555 9.59415 25.5591 9.61931 25.5603 9.64477C25.5597 9.65337 25.5553 9.66042 25.5553 9.66901V14.4787C24.393 14.2986 23.1402 14.2063 21.9092 14.2063C20.8574 14.2063 19.7899 14.2741 18.7763 14.4057L18.776 10.667V10.6667V10.6658C18.776 8.69947 14.1964 7.63854 9.88798 7.63854C5.57955 7.63823 1 8.69916 1 10.6654V10.6664V10.6667V14.4627C1 14.483 1.00347 14.5026 1.00442 14.5229C1.00379 14.5302 1 14.5364 1 14.544V18.3401C1 18.3603 1.00347 18.38 1.00442 18.4002C1.00379 18.4076 1 18.4137 1 18.4214V22.2174C1 22.2377 1.00347 22.2573 1.00442 22.2776C1.00379 22.2849 1 22.2911 1 22.2987V26.0948C1 26.115 1.00347 26.1347 1.00442 26.1549C1.0041 26.1623 1 26.1684 1 26.1761V29.9722C1 31.9388 5.57955 33 9.88798 33C12.1828 33 14.334 32.7196 15.9709 32.2128C17.6389 32.7307 19.8057 33 21.9089 33C24.3533 33 26.8838 32.6367 28.6169 31.9415C30.5359 32.6137 33.1791 33 35.9115 33C41.0023 33 46.2682 31.5967 46.2682 29.2478L46.2679 24.4301C46.2679 24.4209 46.2632 24.4136 46.2625 24.4047C46.2638 24.3792 46.2679 24.3543 46.2679 24.3289V19.5109C46.2679 19.5016 46.2632 19.494 46.2625 19.4851C46.2638 19.4596 46.2679 19.4348 46.2679 19.4093V14.5916C46.2679 14.5824 46.2632 14.5747 46.2625 14.5658C46.2638 14.5403 46.2679 14.5155 46.2679 14.49V9.66893C46.2679 9.66003 46.2632 9.65236 46.2625 9.64346C46.2638 9.6183 46.2679 9.59376 46.2679 9.5683L46.2683 4.75035ZM21.9099 14.883C26.7337 14.883 30.0959 16.2191 30.1016 17.4193C30.1016 17.4202 30.1009 17.4211 30.1009 17.4217V17.4279C30.0899 18.6274 26.7298 19.9611 21.9101 19.9611C17.0826 19.9611 13.7185 18.6229 13.7185 17.4218C13.7182 16.2209 17.0828 14.883 21.9101 14.883L21.9099 14.883ZM28.0007 23.1384C27.991 23.1412 27.9812 23.1443 27.9714 23.1476C27.375 23.3636 26.658 23.5483 25.8407 23.6968C24.6472 23.911 23.2875 24.0242 21.9087 24.0242C17.0815 24.0242 13.7171 22.6856 13.7171 21.4841V18.7294C15.1567 19.9765 18.6115 20.6377 21.9095 20.6377C25.2065 20.6377 28.6595 19.9769 30.1003 18.731V21.4839C30.1006 22.053 29.3161 22.6706 28.0006 23.1385L28.0007 23.1384ZM30.1008 22.7825V25.6334C30.1008 26.3783 28.7831 27.1732 26.7441 27.6579C26.4428 27.7291 26.1386 27.792 25.841 27.846C24.6472 28.0601 23.2874 28.1736 21.909 28.1736C17.0814 28.1736 13.7166 26.8351 13.7166 25.6333V22.7929C15.1568 24.0398 18.6107 24.7009 21.9082 24.7009C23.3289 24.7009 24.7322 24.5837 25.9673 24.3622C26.8137 24.2085 27.5609 24.0162 28.1895 23.7907C28.1977 23.7885 28.2063 23.7858 28.2145 23.783C29.0352 23.4934 29.6664 23.1562 30.1003 22.7825L30.1008 22.7825ZM9.8892 8.31524C14.7168 8.31524 18.0808 9.55407 18.0808 10.666C18.0808 11.7779 14.7163 13.0167 9.8892 13.0167C5.06164 13.0167 1.69677 11.7779 1.69677 10.666C1.69677 9.55407 5.06131 8.31524 9.8892 8.31524ZM1.69677 11.8977C3.13701 13.071 6.5909 13.6934 9.8892 13.6934C13.1868 13.6934 16.6407 13.0712 18.0808 11.8977V14.5086C15.8362 14.8777 13.9621 15.5805 13.2898 16.5884C12.2103 16.7384 11.0664 16.8148 9.88895 16.8148C5.06139 16.8148 1.69734 15.5753 1.69734 14.4634L1.69677 11.8977ZM1.69677 15.6956C3.13701 16.8691 6.5909 17.4916 9.8892 17.4916C10.9716 17.4916 12.0243 17.4253 13.0304 17.3017C13.0272 17.3391 13.0228 17.3766 13.0225 17.4146C13.0225 17.4174 13.0212 17.4195 13.0212 17.422V20.4983C12.0205 20.6247 10.9703 20.6922 9.88917 20.6922C5.06161 20.6922 1.69756 19.4527 1.69756 18.3408L1.69677 15.6956ZM1.69677 19.5726C3.13701 20.7464 6.5909 21.369 9.8892 21.369C10.9681 21.369 12.0177 21.3033 13.0212 21.1803V21.4846C13.0212 21.5067 13.0247 21.5279 13.0257 21.55C13.025 21.5573 13.0212 21.5638 13.0212 21.5714V24.3756C12.0205 24.502 10.9703 24.5695 9.8892 24.5695C5.06164 24.5695 1.69758 23.33 1.69758 22.2181L1.69677 19.5726ZM1.69677 23.45C3.13701 24.6238 6.5909 25.246 9.8892 25.246C10.9681 25.246 12.0177 25.1803 13.0212 25.0573V25.6335C13.0212 25.6571 13.025 25.6798 13.026 25.7031C13.0257 25.7096 13.0222 25.7148 13.0222 25.7212V28.2499C12.0281 28.3784 10.9779 28.4465 9.88925 28.4465C5.06169 28.4465 1.69764 27.2074 1.69764 26.0951L1.69677 23.45ZM9.8892 32.3236C5.06164 32.3236 1.69758 31.0844 1.69758 29.9722V27.3269C3.13749 28.5004 6.59138 29.1229 9.8892 29.1229C10.975 29.1229 12.025 29.0564 13.0221 28.9318V29.7844C13.0221 30.6124 13.7435 31.2886 14.8808 31.8041C13.4491 32.1397 11.7208 32.3235 9.8892 32.3235V32.3236ZM21.91 32.3236C17.0825 32.3236 13.7184 30.9853 13.7184 29.7845V26.9429C15.1593 28.1891 18.6122 28.8499 21.9092 28.8499C23.3289 28.8499 24.7326 28.7327 25.968 28.5112C26.2782 28.4551 26.5947 28.3894 26.909 28.3152C28.3657 27.9688 29.4525 27.4862 30.1022 26.9201V29.7844C30.1019 30.9856 26.7373 32.3235 21.9098 32.3235L21.91 32.3236ZM45.5728 29.2482C45.5728 30.7028 41.6055 32.3236 35.9125 32.3236C33.5568 32.3236 31.2762 32.0318 29.5024 31.5148C30.3083 31.0439 30.7978 30.4656 30.7978 29.7845V27.6059C32.3434 27.9161 34.0995 28.0808 35.9124 28.0808C39.8924 28.0808 43.9787 27.223 45.5727 25.7267L45.5728 29.2482ZM45.5728 24.3289C45.5728 25.7835 41.6055 27.4043 35.9125 27.4043C34.0907 27.4043 32.3312 27.234 30.7978 26.914V25.7211C30.7978 25.7113 30.7928 25.7027 30.7922 25.6932C30.7931 25.6733 30.7969 25.6533 30.7969 25.6334V22.6829C32.3426 22.9931 34.099 23.1582 35.9125 23.1582C39.8925 23.1582 43.9788 22.301 45.5728 20.8059L45.5728 24.3289ZM45.5728 19.4093C45.5728 20.8624 41.6055 22.4813 35.9125 22.4813C34.0898 22.4813 32.3302 22.3107 30.7969 21.9908V21.5707C30.7969 21.5637 30.7931 21.5579 30.7928 21.5508C30.7937 21.5284 30.7969 21.5063 30.7969 21.4839V17.7637C32.3425 18.0738 34.099 18.2389 35.9125 18.2389C39.8925 18.2389 43.9788 17.3817 45.5728 15.8867V19.4093ZM45.5728 14.4901C45.5728 15.9431 41.6055 17.5621 35.9125 17.5621C34.0712 17.5621 32.2939 17.3881 30.7499 17.0617C30.4368 15.8826 28.5939 15.0497 26.2521 14.5987V10.9655C27.8463 12.4612 31.9326 13.3184 35.9124 13.3184C39.8923 13.3184 43.9789 12.4609 45.5735 10.9652L45.5728 14.4901ZM45.5728 9.56805C45.5728 11.0217 41.6052 12.6419 35.9117 12.6419C30.2182 12.6419 26.2514 11.022 26.2514 9.56805V6.14719C27.8456 7.64316 31.9319 8.50036 35.9117 8.50036C39.8915 8.50036 43.9783 7.64285 45.5728 6.14719V9.56805ZM35.9117 7.82389C30.2185 7.82389 26.2514 6.20397 26.2514 4.75002C26.2514 3.29637 30.2187 1.67615 35.9117 1.67615C41.6047 1.67615 45.5728 3.29606 45.5728 4.75002C45.5728 6.20397 41.6052 7.82389 35.9117 7.82389Z" fill="#24A186"/>
<path d="M46.2683 4.75035C46.2683 2.40267 41.0024 1 35.9116 1C30.8209 0.999693 25.555 2.40267 25.555 4.75035V9.56838C25.555 9.59415 25.5591 9.61931 25.5603 9.64477C25.5597 9.65337 25.5553 9.66042 25.5553 9.66901V14.4787C24.393 14.2986 23.1402 14.2063 21.9092 14.2063C20.8574 14.2063 19.7899 14.2741 18.7763 14.4057L18.776 10.667V10.6667V10.6658C18.776 8.69947 14.1964 7.63854 9.88798 7.63854C5.57955 7.63823 1 8.69916 1 10.6654V10.6664V10.6667V14.4627C1 14.483 1.00347 14.5026 1.00442 14.5229C1.00379 14.5302 1 14.5364 1 14.544V18.3401C1 18.3603 1.00347 18.38 1.00442 18.4002C1.00379 18.4076 1 18.4137 1 18.4214V22.2174C1 22.2377 1.00347 22.2573 1.00442 22.2776C1.00379 22.2849 1 22.2911 1 22.2987V26.0948C1 26.115 1.00347 26.1347 1.00442 26.1549C1.0041 26.1623 1 26.1684 1 26.1761V29.9722C1 31.9388 5.57955 33 9.88798 33C12.1828 33 14.334 32.7196 15.9709 32.2128C17.6389 32.7307 19.8057 33 21.9089 33C24.3533 33 26.8838 32.6367 28.6169 31.9415C30.5359 32.6137 33.1791 33 35.9115 33C41.0023 33 46.2682 31.5967 46.2682 29.2478L46.2679 24.4301C46.2679 24.4209 46.2632 24.4136 46.2625 24.4047C46.2638 24.3792 46.2679 24.3543 46.2679 24.3289V19.5109C46.2679 19.5016 46.2632 19.494 46.2625 19.4851C46.2638 19.4596 46.2679 19.4348 46.2679 19.4093V14.5916C46.2679 14.5824 46.2632 14.5747 46.2625 14.5658C46.2638 14.5403 46.2679 14.5155 46.2679 14.49V9.66893C46.2679 9.66003 46.2632 9.65236 46.2625 9.64346C46.2638 9.6183 46.2679 9.59376 46.2679 9.5683L46.2683 4.75035ZM21.9099 14.883C26.7337 14.883 30.0959 16.2191 30.1016 17.4193C30.1016 17.4202 30.1009 17.4211 30.1009 17.4217V17.4279C30.0899 18.6274 26.7298 19.9611 21.9101 19.9611C17.0826 19.9611 13.7185 18.6229 13.7185 17.4218C13.7182 16.2209 17.0828 14.883 21.9101 14.883L21.9099 14.883ZM28.0007 23.1384C27.991 23.1412 27.9812 23.1443 27.9714 23.1476C27.375 23.3636 26.658 23.5483 25.8407 23.6968C24.6472 23.911 23.2875 24.0242 21.9087 24.0242C17.0815 24.0242 13.7171 22.6856 13.7171 21.4841V18.7294C15.1567 19.9765 18.6115 20.6377 21.9095 20.6377C25.2065 20.6377 28.6595 19.9769 30.1003 18.731V21.4839C30.1006 22.053 29.3161 22.6706 28.0006 23.1385L28.0007 23.1384ZM30.1008 22.7825V25.6334C30.1008 26.3783 28.7831 27.1732 26.7441 27.6579C26.4428 27.7291 26.1386 27.792 25.841 27.846C24.6472 28.0601 23.2874 28.1736 21.909 28.1736C17.0814 28.1736 13.7166 26.8351 13.7166 25.6333V22.7929C15.1568 24.0398 18.6107 24.7009 21.9082 24.7009C23.3289 24.7009 24.7322 24.5837 25.9673 24.3622C26.8137 24.2085 27.5609 24.0162 28.1895 23.7907C28.1977 23.7885 28.2063 23.7858 28.2145 23.783C29.0352 23.4934 29.6664 23.1562 30.1003 22.7825L30.1008 22.7825ZM9.8892 8.31524C14.7168 8.31524 18.0808 9.55407 18.0808 10.666C18.0808 11.7779 14.7163 13.0167 9.8892 13.0167C5.06164 13.0167 1.69677 11.7779 1.69677 10.666C1.69677 9.55407 5.06131 8.31524 9.8892 8.31524ZM1.69677 11.8977C3.13701 13.071 6.5909 13.6934 9.8892 13.6934C13.1868 13.6934 16.6407 13.0712 18.0808 11.8977V14.5086C15.8362 14.8777 13.9621 15.5805 13.2898 16.5884C12.2103 16.7384 11.0664 16.8148 9.88895 16.8148C5.06139 16.8148 1.69734 15.5753 1.69734 14.4634L1.69677 11.8977ZM1.69677 15.6956C3.13701 16.8691 6.5909 17.4916 9.8892 17.4916C10.9716 17.4916 12.0243 17.4253 13.0304 17.3017C13.0272 17.3391 13.0228 17.3766 13.0225 17.4146C13.0225 17.4174 13.0212 17.4195 13.0212 17.422V20.4983C12.0205 20.6247 10.9703 20.6922 9.88917 20.6922C5.06161 20.6922 1.69756 19.4527 1.69756 18.3408L1.69677 15.6956ZM1.69677 19.5726C3.13701 20.7464 6.5909 21.369 9.8892 21.369C10.9681 21.369 12.0177 21.3033 13.0212 21.1803V21.4846C13.0212 21.5067 13.0247 21.5279 13.0257 21.55C13.025 21.5573 13.0212 21.5638 13.0212 21.5714V24.3756C12.0205 24.502 10.9703 24.5695 9.8892 24.5695C5.06164 24.5695 1.69758 23.33 1.69758 22.2181L1.69677 19.5726ZM1.69677 23.45C3.13701 24.6238 6.5909 25.246 9.8892 25.246C10.9681 25.246 12.0177 25.1803 13.0212 25.0573V25.6335C13.0212 25.6571 13.025 25.6798 13.026 25.7031C13.0257 25.7096 13.0222 25.7148 13.0222 25.7212V28.2499C12.0281 28.3784 10.9779 28.4465 9.88925 28.4465C5.06169 28.4465 1.69764 27.2074 1.69764 26.0951L1.69677 23.45ZM9.8892 32.3236C5.06164 32.3236 1.69758 31.0844 1.69758 29.9722V27.3269C3.13749 28.5004 6.59138 29.1229 9.8892 29.1229C10.975 29.1229 12.025 29.0564 13.0221 28.9318V29.7844C13.0221 30.6124 13.7435 31.2886 14.8808 31.8041C13.4491 32.1397 11.7208 32.3235 9.8892 32.3235V32.3236ZM21.91 32.3236C17.0825 32.3236 13.7184 30.9853 13.7184 29.7845V26.9429C15.1593 28.1891 18.6122 28.8499 21.9092 28.8499C23.3289 28.8499 24.7326 28.7327 25.968 28.5112C26.2782 28.4551 26.5947 28.3894 26.909 28.3152C28.3657 27.9688 29.4525 27.4862 30.1022 26.9201V29.7844C30.1019 30.9856 26.7373 32.3235 21.9098 32.3235L21.91 32.3236ZM45.5728 29.2482C45.5728 30.7028 41.6055 32.3236 35.9125 32.3236C33.5568 32.3236 31.2762 32.0318 29.5024 31.5148C30.3083 31.0439 30.7978 30.4656 30.7978 29.7845V27.6059C32.3434 27.9161 34.0995 28.0808 35.9124 28.0808C39.8924 28.0808 43.9787 27.223 45.5727 25.7267L45.5728 29.2482ZM45.5728 24.3289C45.5728 25.7835 41.6055 27.4043 35.9125 27.4043C34.0907 27.4043 32.3312 27.234 30.7978 26.914V25.7211C30.7978 25.7113 30.7928 25.7027 30.7922 25.6932C30.7931 25.6733 30.7969 25.6533 30.7969 25.6334V22.6829C32.3426 22.9931 34.099 23.1582 35.9125 23.1582C39.8925 23.1582 43.9788 22.301 45.5728 20.8059L45.5728 24.3289ZM45.5728 19.4093C45.5728 20.8624 41.6055 22.4813 35.9125 22.4813C34.0898 22.4813 32.3302 22.3107 30.7969 21.9908V21.5707C30.7969 21.5637 30.7931 21.5579 30.7928 21.5508C30.7937 21.5284 30.7969 21.5063 30.7969 21.4839V17.7637C32.3425 18.0738 34.099 18.2389 35.9125 18.2389C39.8925 18.2389 43.9788 17.3817 45.5728 15.8867V19.4093ZM45.5728 14.4901C45.5728 15.9431 41.6055 17.5621 35.9125 17.5621C34.0712 17.5621 32.2939 17.3881 30.7499 17.0617C30.4368 15.8826 28.5939 15.0497 26.2521 14.5987V10.9655C27.8463 12.4612 31.9326 13.3184 35.9124 13.3184C39.8923 13.3184 43.9789 12.4609 45.5735 10.9652L45.5728 14.4901ZM45.5728 9.56805C45.5728 11.0217 41.6052 12.6419 35.9117 12.6419C30.2182 12.6419 26.2514 11.022 26.2514 9.56805V6.14719C27.8456 7.64316 31.9319 8.50036 35.9117 8.50036C39.8915 8.50036 43.9783 7.64285 45.5728 6.14719V9.56805ZM35.9117 7.82389C30.2185 7.82389 26.2514 6.20397 26.2514 4.75002C26.2514 3.29637 30.2187 1.67615 35.9117 1.67615C41.6047 1.67615 45.5728 3.29606 45.5728 4.75002C45.5728 6.20397 41.6052 7.82389 35.9117 7.82389Z" stroke="#24A186" stroke-width="0.6" mask="url(#path-1-outside-1_468_9807)"/>
</svg>
