<svg width="36" height="45" viewBox="0 0 36 45" fill="none" xmlns="http://www.w3.org/2000/svg">
<path d="M34.4301 38.3834H7.2422C6.86685 38.3834 6.5625 38.0791 6.5625 37.7037V1.6797C6.5625 1.30435 6.86685 1 7.2422 1H27.4568C27.6295 1.00243 27.7945 1.0704 27.919 1.19025C29.5026 2.74688 31.7866 5.07821 34.9062 8.29314C35.0236 8.41847 35.0892 8.58354 35.0898 8.75528V37.7376C35.0722 38.092 34.7851 38.373 34.4304 38.3833L34.4301 38.3834ZM7.86752 37.0783H33.7706V9.02037C30.8753 6.02969 28.7205 3.8343 27.1842 2.31869H7.8676L7.86752 37.0783Z" fill="#24A186" stroke="#24A186" stroke-width="0.4"/>
<path d="M34.4482 9.41754H27.4609C27.0856 9.41754 26.7812 9.11319 26.7812 8.73784V1.68265C26.7855 1.41653 26.9451 1.17743 27.1891 1.07092C27.4409 0.962594 27.7328 1.0163 27.9298 1.20686C30.9341 4.30613 33.2518 6.64445 34.8221 8.21444C34.9984 8.34006 35.1043 8.54184 35.1076 8.75819C35.097 9.11807 34.8078 9.40695 34.4482 9.41756L34.4482 9.41754ZM28.1203 8.09877H32.8376C31.5801 6.84129 30.0032 5.23036 28.1203 3.29326V8.09877Z" fill="#24A186" stroke="#24A186" stroke-width="0.4"/>
<path d="M28.3239 44.4988H1.6797C1.30435 44.4988 1 44.1945 1 43.8191V7.69337C1 7.31802 1.30435 7.01367 1.6797 7.01367H7.23288C7.5351 7.08953 7.7472 7.36111 7.7472 7.67304C7.7472 7.98467 7.5351 8.25655 7.23288 8.33241H2.33905V43.1804H27.6642V37.7428C27.7401 37.4405 28.012 37.2284 28.3236 37.2284C28.6352 37.2284 28.9071 37.4405 28.983 37.7428V43.8601C28.962 44.2117 28.6756 44.4891 28.3236 44.4991L28.3239 44.4988Z" fill="#24A186" stroke="#24A186" stroke-width="0.4"/>
<path d="M29.433 16.1954H12.78C12.4777 16.1198 12.2656 15.848 12.2656 15.5363C12.2656 15.2244 12.4777 14.9528 12.78 14.877H29.433C29.7355 14.9528 29.9476 15.2244 29.9476 15.5363C29.9476 15.848 29.7355 16.1198 29.433 16.1954Z" fill="#24A186" stroke="#24A186" stroke-width="0.4"/>
<path d="M23.3289 21.1879H12.78C12.4777 21.112 12.2656 20.8404 12.2656 20.5285C12.2656 20.2169 12.4777 19.945 12.78 19.8691H23.3289C23.6314 19.945 23.8432 20.2169 23.8432 20.5285C23.8432 20.8404 23.6314 21.112 23.3289 21.1879Z" fill="#24A186" stroke="#24A186" stroke-width="0.4"/>
<path d="M26.6598 25.6322H12.78C12.4777 25.5563 12.2656 25.2844 12.2656 24.9728C12.2656 24.6609 12.4777 24.3893 12.78 24.3134H26.6598C26.8628 24.2624 27.0782 24.308 27.2433 24.4369C27.4084 24.5656 27.5049 24.7634 27.5049 24.9728C27.5049 25.1821 27.4084 25.3797 27.2433 25.5086C27.0782 25.6373 26.8628 25.6828 26.6598 25.6321V25.6322Z" fill="#24A186" stroke="#24A186" stroke-width="0.4"/>
<path d="M19.9984 30.0687H12.78C12.4777 29.9929 12.2656 29.721 12.2656 29.4094C12.2656 29.0977 12.4777 28.8259 12.78 28.75H19.9984C20.301 28.8259 20.5128 29.0977 20.5128 29.4094C20.5128 29.721 20.301 29.9929 19.9984 30.0687Z" fill="#24A186" stroke="#24A186" stroke-width="0.4"/>
</svg>
