<svg width="40" height="41" viewBox="0 0 40 41" fill="none" xmlns="http://www.w3.org/2000/svg">
<path d="M17.1258 40.25C17.0086 40.25 16.8915 40.2236 16.783 40.1708C16.1575 39.8635 1.44553 32.5399 0.434758 22.7451C-0.53964 13.2881 0.426803 5.35278 0.436927 5.27411C0.485739 4.8847 0.816939 4.59291 1.20887 4.59291C1.21285 4.59291 1.21032 4.59255 1.23671 4.59291C1.72411 4.59291 10.5771 4.52493 16.7852 0.142353C17.1367 -0.105324 17.6212 -0.0214352 17.8692 0.32892C18.1169 0.680007 18.033 1.16486 17.6827 1.41291C11.9012 5.49433 4.26306 6.0609 1.90921 6.13643C1.70601 8.21657 1.1886 14.8824 1.98297 22.5847C2.82616 30.7583 14.9324 37.4492 17.1298 38.5997C18.3909 37.9503 22.9084 35.5108 26.7136 32.0303C27.0304 31.7396 27.5217 31.7613 27.8121 32.0791C28.1024 32.3959 28.0807 32.8883 27.7633 33.1775C23.1406 37.4058 17.6944 40.0611 17.4648 40.1721C17.3574 40.2238 17.2414 40.2498 17.1257 40.2498L17.1258 40.25Z" fill="#24A186"/>
<path d="M33.7004 14.1126C33.2748 14.1126 32.9277 13.7699 32.923 13.3439C32.8868 10.0529 32.6753 7.34547 32.5658 6.13643C30.2047 6.05978 22.5756 5.49103 16.7979 1.41291C16.4468 1.16524 16.3636 0.68001 16.6113 0.328923C16.859 -0.0214419 17.3431 -0.105322 17.6953 0.142355C24.056 4.63373 33.1624 4.59217 33.2642 4.59291H33.2725C33.6684 4.59291 34.0014 4.89048 34.0452 5.28424C34.0488 5.31858 34.4277 8.78057 34.4783 13.327C34.483 13.7562 34.1388 14.108 33.7096 14.1134C33.7064 14.1127 33.7031 14.1127 33.7006 14.1127L33.7004 14.1126Z" fill="#24A186"/>
<path d="M17.345 35.0302C17.2293 35.0302 17.114 35.0041 17.0077 34.9535C16.5387 34.7272 5.51058 29.3293 4.76083 22.0606C4.04709 15.1304 4.73335 9.49163 4.763 9.25467C4.81181 8.86527 5.14301 8.57347 5.53494 8.57347C5.53892 8.57347 5.53639 8.57311 5.55628 8.57347C5.89832 8.57347 12.3072 8.52575 16.7886 5.36167C17.1397 5.11291 17.6246 5.19753 17.8719 5.54824C18.1196 5.89933 18.036 6.38419 17.6853 6.63149C13.5602 9.54395 8.16257 10.0328 6.23729 10.1126C6.08037 11.8019 5.7517 16.5009 6.30816 21.8995C6.9004 27.6506 15.5086 32.4237 17.3424 33.378C18.0945 32.9799 19.988 31.9259 21.9785 30.4193C22.3195 30.1601 22.809 30.2277 23.0679 30.5701C23.3272 30.9121 23.2592 31.4006 22.9172 31.6595C20.2369 33.6883 17.7912 34.8992 17.6885 34.9494C17.5804 35.0026 17.4629 35.0297 17.3458 35.0297L17.345 35.0302Z" fill="#24A186"/>
<path d="M29.1478 12.9545C28.7399 12.9545 28.3979 12.6367 28.3722 12.2241C28.3223 11.4098 28.2673 10.6394 28.2276 10.1126C26.2874 10.0301 20.9112 9.53552 16.798 6.63356C16.447 6.38588 16.3638 5.90065 16.6107 5.55031C16.8584 5.19922 17.3437 5.11534 17.694 5.36302C22.2751 8.59583 28.8727 8.57195 28.9403 8.5738H28.9475C29.3517 8.5738 29.6901 8.88439 29.723 9.28827C29.723 9.28827 29.833 10.6359 29.9241 12.1302C29.9505 12.559 29.624 12.9275 29.1952 12.9535C29.1792 12.9538 29.163 12.9546 29.1474 12.9546L29.1478 12.9545Z" fill="#24A186"/>
<path d="M29.2602 33.3798C23.3355 33.3798 18.5156 28.5597 18.5156 22.6352C18.5156 16.7105 23.3357 11.8906 29.2602 11.8906C35.1853 11.8906 40.0048 16.7107 40.0048 22.6352C40.0051 28.5599 35.1851 33.3798 29.2602 33.3798ZM29.2602 13.4457C24.1935 13.4457 20.0706 17.5679 20.0706 22.6353C20.0706 27.7027 24.1928 31.8249 29.2602 31.8249C34.3276 31.8249 38.4498 27.7027 38.4498 22.6353C38.4505 17.5679 34.328 13.4457 29.2602 13.4457Z" fill="#24A186"/>
<path d="M27.4987 28.8151H27.4976C27.2836 28.8147 27.079 28.7265 26.9321 28.5703L22.2422 23.5868C21.9483 23.2736 21.9635 22.7819 22.2755 22.4872C22.5886 22.194 23.0796 22.2077 23.375 22.5205L27.5001 26.9041L35.6315 18.3172C35.9265 18.0051 36.419 17.9921 36.7303 18.2872C37.0423 18.5826 37.0557 19.0746 36.7603 19.3867L28.0635 28.572C27.9163 28.7271 27.7124 28.8149 27.4987 28.8149L27.4987 28.8151Z" fill="#24A186"/>
</svg>
