<?xml version="1.0" encoding="utf-8"?><svg viewBox="0 0 152 45" xmlns="http://www.w3.org/2000/svg" xmlns:xlink="http://www.w3.org/1999/xlink"><style>:root>svg{display:none}:root>svg:target{display:block}</style><svg fill="none" viewBox="0 0 47 34" id="advantages1" xmlns="http://www.w3.org/2000/svg"><mask id="aaa" maskUnits="userSpaceOnUse" x="0" y="0" width="47" height="34" fill="#000"><path fill="#fff" d="M0 0h47v34H0z"/><path d="M46.268 4.75c0-2.347-5.266-3.75-10.356-3.75-5.091 0-10.357 1.403-10.357 3.75v4.818c0 .026.004.051.005.077 0 .008-.005.015-.005.024v4.81a24.582 24.582 0 0 0-6.779-.073V10.666c0-1.967-4.58-3.027-8.888-3.027S1 8.699 1 10.665v3.798c0 .02.003.04.004.06 0 .007-.004.013-.004.021v3.796c0 .02.003.04.004.06 0 .008-.004.014-.004.021v3.796c0 .02.003.04.004.06 0 .008-.004.014-.004.022v3.796c0 .02.003.04.004.06 0 .007-.004.013-.004.021v3.796C1 31.94 5.58 33 9.888 33c2.295 0 4.446-.28 6.083-.787 1.668.518 3.835.787 5.938.787 2.444 0 4.975-.363 6.708-1.058C30.536 32.614 33.179 33 35.91 33c5.091 0 10.357-1.403 10.357-3.752V24.43c0-.01-.005-.016-.005-.025 0-.026.005-.05.005-.076V19.51c0-.01-.005-.017-.005-.026 0-.025.005-.05.005-.076v-4.817c0-.01-.005-.017-.005-.026 0-.026.005-.05.005-.076V9.669c0-.009-.005-.017-.005-.026 0-.025.005-.05.005-.075V4.75ZM21.91 14.883c4.824 0 8.186 1.336 8.192 2.536l-.001.003v.006c-.011 1.2-3.371 2.533-8.19 2.533-4.828 0-8.193-1.338-8.193-2.54 0-1.2 3.365-2.538 8.192-2.538ZM28 23.138a13.355 13.355 0 0 1-2.16.558 22.697 22.697 0 0 1-3.931.328c-4.828 0-8.192-1.338-8.192-2.54V18.73c1.44 1.248 4.894 1.909 8.193 1.909 3.296 0 6.75-.661 8.19-1.907v2.753c0 .569-.784 1.187-2.1 1.654Zm2.1-.356v2.851c0 .745-1.317 1.54-3.356 2.025-.301.071-.605.134-.903.188a22.712 22.712 0 0 1-3.932.328c-4.828 0-8.192-1.339-8.192-2.54v-2.841c1.44 1.247 4.894 1.908 8.191 1.908 1.42 0 2.824-.117 4.06-.339a14.144 14.144 0 0 0 2.247-.579c.82-.29 1.451-.627 1.885-1ZM9.89 8.315c4.827 0 8.19 1.24 8.19 2.351 0 1.112-3.364 2.35-8.19 2.35-4.828 0-8.193-1.238-8.193-2.35s3.364-2.35 8.192-2.35Zm-8.193 3.583c1.44 1.173 4.894 1.795 8.192 1.795s6.752-.622 8.192-1.795v2.61c-2.245.37-4.119 1.073-4.791 2.08-1.08.15-2.224.227-3.401.227-4.828 0-8.192-1.24-8.192-2.352v-2.565Zm0 3.798c1.44 1.173 4.894 1.796 8.192 1.796a25.81 25.81 0 0 0 3.141-.19c-.003.037-.007.075-.007.113l-.002.007v3.076c-1 .127-2.05.194-3.132.194-4.827 0-8.191-1.24-8.191-2.351l-.001-2.645Zm0 3.877c1.44 1.173 4.894 1.796 8.192 1.796 1.08 0 2.129-.066 3.132-.189v.305c0 .022.004.043.005.065-.001.007-.005.014-.005.021v2.805c-1 .126-2.05.194-3.132.194-4.827 0-8.191-1.24-8.191-2.352l-.001-2.645Zm0 3.877c1.44 1.174 4.894 1.796 8.192 1.796 1.08 0 2.129-.066 3.132-.189v.577c0 .023.004.046.005.07 0 .006-.004.01-.004.017v2.529c-.994.128-2.044.197-3.133.197-4.827 0-8.191-1.24-8.191-2.352l-.001-2.645Zm8.192 8.874c-4.827 0-8.191-1.24-8.191-2.352v-2.645c1.44 1.173 4.893 1.796 8.191 1.796a25.32 25.32 0 0 0 3.133-.191v.852c0 .828.721 1.505 1.859 2.02-1.432.336-3.16.52-4.992.52Zm12.021 0c-4.828 0-8.192-1.339-8.192-2.54v-2.841c1.441 1.246 4.894 1.907 8.191 1.907 1.42 0 2.824-.117 4.059-.339.31-.056.627-.122.941-.196 1.457-.346 2.544-.829 3.193-1.395v2.864c0 1.202-3.365 2.54-8.192 2.54Zm23.663-3.076c0 1.455-3.968 3.076-9.66 3.076-2.356 0-4.637-.292-6.41-.81.805-.47 1.295-1.048 1.295-1.73v-2.178c1.545.31 3.302.475 5.114.475 3.98 0 8.067-.858 9.66-2.354v3.521Zm0-4.92c0 1.456-3.968 3.076-9.66 3.076-1.822 0-3.582-.17-5.115-.49v-1.193c0-.01-.005-.018-.006-.028.001-.02.005-.04.005-.06v-2.95c1.546.31 3.302.475 5.116.475 3.98 0 8.066-.857 9.66-2.352v3.523Zm0-4.919c0 1.453-3.968 3.072-9.66 3.072-1.823 0-3.583-.17-5.116-.49v-.42c0-.007-.004-.013-.004-.02 0-.023.004-.045.004-.067v-3.72c1.546.31 3.302.475 5.116.475 3.98 0 8.066-.857 9.66-2.352v3.522Zm0-4.919c0 1.453-3.968 3.072-9.66 3.072-1.842 0-3.62-.174-5.163-.5-.313-1.18-2.156-2.012-4.498-2.463v-3.633c1.594 1.495 5.68 2.352 9.66 2.352 3.98 0 8.067-.857 9.662-2.353l-.001 3.525Zm0-4.922c0 1.454-3.968 3.074-9.661 3.074-5.694 0-9.66-1.62-9.66-3.074v-3.42c1.594 1.495 5.68 2.352 9.66 2.352 3.98 0 8.066-.857 9.66-2.353v3.421Zm-9.661-1.744c-5.694 0-9.66-1.62-9.66-3.074 0-1.454 3.967-3.074 9.66-3.074s9.66 1.62 9.66 3.074c0 1.454-3.967 3.074-9.66 3.074Z"/></mask><path d="M46.268 4.75c0-2.347-5.266-3.75-10.356-3.75-5.091 0-10.357 1.403-10.357 3.75v4.818c0 .026.004.051.005.077 0 .008-.005.015-.005.024v4.81a24.582 24.582 0 0 0-6.779-.073V10.666c0-1.967-4.58-3.027-8.888-3.027S1 8.699 1 10.665v3.798c0 .02.003.04.004.06 0 .007-.004.013-.004.021v3.796c0 .02.003.04.004.06 0 .008-.004.014-.004.021v3.796c0 .02.003.04.004.06 0 .008-.004.014-.004.022v3.796c0 .02.003.04.004.06 0 .007-.004.013-.004.021v3.796C1 31.94 5.58 33 9.888 33c2.295 0 4.446-.28 6.083-.787 1.668.518 3.835.787 5.938.787 2.444 0 4.975-.363 6.708-1.058C30.536 32.614 33.179 33 35.91 33c5.091 0 10.357-1.403 10.357-3.752V24.43c0-.01-.005-.016-.005-.025 0-.026.005-.05.005-.076V19.51c0-.01-.005-.017-.005-.026 0-.025.005-.05.005-.076v-4.817c0-.01-.005-.017-.005-.026 0-.026.005-.05.005-.076V9.669c0-.009-.005-.017-.005-.026 0-.025.005-.05.005-.075V4.75ZM21.91 14.883c4.824 0 8.186 1.336 8.192 2.536l-.001.003v.006c-.011 1.2-3.371 2.533-8.19 2.533-4.828 0-8.193-1.338-8.193-2.54 0-1.2 3.365-2.538 8.192-2.538ZM28 23.138a13.355 13.355 0 0 1-2.16.558 22.697 22.697 0 0 1-3.931.328c-4.828 0-8.192-1.338-8.192-2.54V18.73c1.44 1.248 4.894 1.909 8.193 1.909 3.296 0 6.75-.661 8.19-1.907v2.753c0 .569-.784 1.187-2.1 1.654Zm2.1-.356v2.851c0 .745-1.317 1.54-3.356 2.025-.301.071-.605.134-.903.188a22.712 22.712 0 0 1-3.932.328c-4.828 0-8.192-1.339-8.192-2.54v-2.841c1.44 1.247 4.894 1.908 8.191 1.908 1.42 0 2.824-.117 4.06-.339a14.144 14.144 0 0 0 2.247-.579c.82-.29 1.451-.627 1.885-1ZM9.89 8.315c4.827 0 8.19 1.24 8.19 2.351 0 1.112-3.364 2.35-8.19 2.35-4.828 0-8.193-1.238-8.193-2.35s3.364-2.35 8.192-2.35Zm-8.193 3.583c1.44 1.173 4.894 1.795 8.192 1.795s6.752-.622 8.192-1.795v2.61c-2.245.37-4.119 1.073-4.791 2.08-1.08.15-2.224.227-3.401.227-4.828 0-8.192-1.24-8.192-2.352v-2.565Zm0 3.798c1.44 1.173 4.894 1.796 8.192 1.796a25.81 25.81 0 0 0 3.141-.19c-.003.037-.007.075-.007.113l-.002.007v3.076c-1 .127-2.05.194-3.132.194-4.827 0-8.191-1.24-8.191-2.351l-.001-2.645Zm0 3.877c1.44 1.173 4.894 1.796 8.192 1.796 1.08 0 2.129-.066 3.132-.189v.305c0 .022.004.043.005.065-.001.007-.005.014-.005.021v2.805c-1 .126-2.05.194-3.132.194-4.827 0-8.191-1.24-8.191-2.352l-.001-2.645Zm0 3.877c1.44 1.174 4.894 1.796 8.192 1.796 1.08 0 2.129-.066 3.132-.189v.577c0 .023.004.046.005.07 0 .006-.004.01-.004.017v2.529c-.994.128-2.044.197-3.133.197-4.827 0-8.191-1.24-8.191-2.352l-.001-2.645Zm8.192 8.874c-4.827 0-8.191-1.24-8.191-2.352v-2.645c1.44 1.173 4.893 1.796 8.191 1.796a25.32 25.32 0 0 0 3.133-.191v.852c0 .828.721 1.505 1.859 2.02-1.432.336-3.16.52-4.992.52Zm12.021 0c-4.828 0-8.192-1.339-8.192-2.54v-2.841c1.441 1.246 4.894 1.907 8.191 1.907 1.42 0 2.824-.117 4.059-.339.31-.056.627-.122.941-.196 1.457-.346 2.544-.829 3.193-1.395v2.864c0 1.202-3.365 2.54-8.192 2.54Zm23.663-3.076c0 1.455-3.968 3.076-9.66 3.076-2.356 0-4.637-.292-6.41-.81.805-.47 1.295-1.048 1.295-1.73v-2.178c1.545.31 3.302.475 5.114.475 3.98 0 8.067-.858 9.66-2.354v3.521Zm0-4.92c0 1.456-3.968 3.076-9.66 3.076-1.822 0-3.582-.17-5.115-.49v-1.193c0-.01-.005-.018-.006-.028.001-.02.005-.04.005-.06v-2.95c1.546.31 3.302.475 5.116.475 3.98 0 8.066-.857 9.66-2.352v3.523Zm0-4.919c0 1.453-3.968 3.072-9.66 3.072-1.823 0-3.583-.17-5.116-.49v-.42c0-.007-.004-.013-.004-.02 0-.023.004-.045.004-.067v-3.72c1.546.31 3.302.475 5.116.475 3.98 0 8.066-.857 9.66-2.352v3.522Zm0-4.919c0 1.453-3.968 3.072-9.66 3.072-1.842 0-3.62-.174-5.163-.5-.313-1.18-2.156-2.012-4.498-2.463v-3.633c1.594 1.495 5.68 2.352 9.66 2.352 3.98 0 8.067-.857 9.662-2.353l-.001 3.525Zm0-4.922c0 1.454-3.968 3.074-9.661 3.074-5.694 0-9.66-1.62-9.66-3.074v-3.42c1.594 1.495 5.68 2.352 9.66 2.352 3.98 0 8.066-.857 9.66-2.353v3.421Zm-9.661-1.744c-5.694 0-9.66-1.62-9.66-3.074 0-1.454 3.967-3.074 9.66-3.074s9.66 1.62 9.66 3.074c0 1.454-3.967 3.074-9.66 3.074Z" fill="#24A186"/><path d="M46.268 4.75c0-2.347-5.266-3.75-10.356-3.75-5.091 0-10.357 1.403-10.357 3.75v4.818c0 .026.004.051.005.077 0 .008-.005.015-.005.024v4.81a24.582 24.582 0 0 0-6.779-.073V10.666c0-1.967-4.58-3.027-8.888-3.027S1 8.699 1 10.665v3.798c0 .02.003.04.004.06 0 .007-.004.013-.004.021v3.796c0 .02.003.04.004.06 0 .008-.004.014-.004.021v3.796c0 .02.003.04.004.06 0 .008-.004.014-.004.022v3.796c0 .02.003.04.004.06 0 .007-.004.013-.004.021v3.796C1 31.94 5.58 33 9.888 33c2.295 0 4.446-.28 6.083-.787 1.668.518 3.835.787 5.938.787 2.444 0 4.975-.363 6.708-1.058C30.536 32.614 33.179 33 35.91 33c5.091 0 10.357-1.403 10.357-3.752V24.43c0-.01-.005-.016-.005-.025 0-.026.005-.05.005-.076V19.51c0-.01-.005-.017-.005-.026 0-.025.005-.05.005-.076v-4.817c0-.01-.005-.017-.005-.026 0-.026.005-.05.005-.076V9.669c0-.009-.005-.017-.005-.026 0-.025.005-.05.005-.075V4.75ZM21.91 14.883c4.824 0 8.186 1.336 8.192 2.536l-.001.003v.006c-.011 1.2-3.371 2.533-8.19 2.533-4.828 0-8.193-1.338-8.193-2.54 0-1.2 3.365-2.538 8.192-2.538ZM28 23.138a13.355 13.355 0 0 1-2.16.558 22.697 22.697 0 0 1-3.931.328c-4.828 0-8.192-1.338-8.192-2.54V18.73c1.44 1.248 4.894 1.909 8.193 1.909 3.296 0 6.75-.661 8.19-1.907v2.753c0 .569-.784 1.187-2.1 1.654Zm2.1-.356v2.851c0 .745-1.317 1.54-3.356 2.025-.301.071-.605.134-.903.188a22.712 22.712 0 0 1-3.932.328c-4.828 0-8.192-1.339-8.192-2.54v-2.841c1.44 1.247 4.894 1.908 8.191 1.908 1.42 0 2.824-.117 4.06-.339a14.144 14.144 0 0 0 2.247-.579c.82-.29 1.451-.627 1.885-1ZM9.89 8.315c4.827 0 8.19 1.24 8.19 2.351 0 1.112-3.364 2.35-8.19 2.35-4.828 0-8.193-1.238-8.193-2.35s3.364-2.35 8.192-2.35Zm-8.193 3.583c1.44 1.173 4.894 1.795 8.192 1.795s6.752-.622 8.192-1.795v2.61c-2.245.37-4.119 1.073-4.791 2.08-1.08.15-2.224.227-3.401.227-4.828 0-8.192-1.24-8.192-2.352v-2.565Zm0 3.798c1.44 1.173 4.894 1.796 8.192 1.796a25.81 25.81 0 0 0 3.141-.19c-.003.037-.007.075-.007.113l-.002.007v3.076c-1 .127-2.05.194-3.132.194-4.827 0-8.191-1.24-8.191-2.351l-.001-2.645Zm0 3.877c1.44 1.173 4.894 1.796 8.192 1.796 1.08 0 2.129-.066 3.132-.189v.305c0 .022.004.043.005.065-.001.007-.005.014-.005.021v2.805c-1 .126-2.05.194-3.132.194-4.827 0-8.191-1.24-8.191-2.352l-.001-2.645Zm0 3.877c1.44 1.174 4.894 1.796 8.192 1.796 1.08 0 2.129-.066 3.132-.189v.577c0 .023.004.046.005.07 0 .006-.004.01-.004.017v2.529c-.994.128-2.044.197-3.133.197-4.827 0-8.191-1.24-8.191-2.352l-.001-2.645Zm8.192 8.874c-4.827 0-8.191-1.24-8.191-2.352v-2.645c1.44 1.173 4.893 1.796 8.191 1.796a25.32 25.32 0 0 0 3.133-.191v.852c0 .828.721 1.505 1.859 2.02-1.432.336-3.16.52-4.992.52Zm12.021 0c-4.828 0-8.192-1.339-8.192-2.54v-2.841c1.441 1.246 4.894 1.907 8.191 1.907 1.42 0 2.824-.117 4.059-.339.31-.056.627-.122.941-.196 1.457-.346 2.544-.829 3.193-1.395v2.864c0 1.202-3.365 2.54-8.192 2.54Zm23.663-3.076c0 1.455-3.968 3.076-9.66 3.076-2.356 0-4.637-.292-6.41-.81.805-.47 1.295-1.048 1.295-1.73v-2.178c1.545.31 3.302.475 5.114.475 3.98 0 8.067-.858 9.66-2.354v3.521Zm0-4.92c0 1.456-3.968 3.076-9.66 3.076-1.822 0-3.582-.17-5.115-.49v-1.193c0-.01-.005-.018-.006-.028.001-.02.005-.04.005-.06v-2.95c1.546.31 3.302.475 5.116.475 3.98 0 8.066-.857 9.66-2.352v3.523Zm0-4.919c0 1.453-3.968 3.072-9.66 3.072-1.823 0-3.583-.17-5.116-.49v-.42c0-.007-.004-.013-.004-.02 0-.023.004-.045.004-.067v-3.72c1.546.31 3.302.475 5.116.475 3.98 0 8.066-.857 9.66-2.352v3.522Zm0-4.919c0 1.453-3.968 3.072-9.66 3.072-1.842 0-3.62-.174-5.163-.5-.313-1.18-2.156-2.012-4.498-2.463v-3.633c1.594 1.495 5.68 2.352 9.66 2.352 3.98 0 8.067-.857 9.662-2.353l-.001 3.525Zm0-4.922c0 1.454-3.968 3.074-9.661 3.074-5.694 0-9.66-1.62-9.66-3.074v-3.42c1.594 1.495 5.68 2.352 9.66 2.352 3.98 0 8.066-.857 9.66-2.353v3.421Zm-9.661-1.744c-5.694 0-9.66-1.62-9.66-3.074 0-1.454 3.967-3.074 9.66-3.074s9.66 1.62 9.66 3.074c0 1.454-3.967 3.074-9.66 3.074Z" stroke="#24A186" stroke-width=".6" mask="url(#aaa)"/></svg><svg fill="none" viewBox="0 0 40 41" id="advantages2" xmlns="http://www.w3.org/2000/svg"><path d="M17.126 40.25a.783.783 0 0 1-.343-.08c-.626-.306-15.337-7.63-16.348-17.425C-.54 13.288.427 5.353.437 5.275a.778.778 0 0 1 .772-.682h.028c.487 0 9.34-.068 15.548-4.45a.778.778 0 0 1 .898 1.27C11.9 5.494 4.263 6.06 1.909 6.136c-.203 2.08-.72 8.746.074 16.449.843 8.173 12.95 14.864 15.147 16.015 1.26-.65 5.778-3.09 9.584-6.57a.776.776 0 1 1 1.05 1.147c-4.623 4.229-10.07 6.884-10.3 6.995a.782.782 0 0 1-.338.078Z" fill="#24A186"/><path d="M33.7 14.113a.778.778 0 0 1-.777-.77 93.932 93.932 0 0 0-.357-7.207c-2.361-.076-9.99-.645-15.768-4.723a.778.778 0 1 1 .897-1.27c6.361 4.49 15.467 4.45 15.57 4.45h.008c.395 0 .728.297.772.691.004.035.383 3.497.433 8.043a.778.778 0 0 1-.768.786h-.01ZM17.345 35.03a.785.785 0 0 1-.337-.077c-.47-.226-11.497-5.624-12.247-12.892-.714-6.93-.028-12.57.002-12.806a.778.778 0 0 1 .772-.682h.021c.342 0 6.751-.047 11.233-3.211a.776.776 0 1 1 .896 1.27c-4.125 2.912-9.522 3.4-11.448 3.48A63.419 63.419 0 0 0 6.308 21.9c.592 5.752 9.2 10.525 11.034 11.479a35.767 35.767 0 0 0 4.637-2.959.778.778 0 0 1 .938 1.24c-2.68 2.03-5.126 3.24-5.229 3.29a.777.777 0 0 1-.342.08l-.001.001Z" fill="#24A186"/><path d="M29.148 12.954a.778.778 0 0 1-.776-.73c-.05-.814-.105-1.585-.144-2.111-1.94-.083-7.317-.577-11.43-3.48a.778.778 0 0 1 .896-1.27c4.581 3.233 11.179 3.209 11.246 3.21h.008c.404 0 .742.311.775.715 0 0 .11 1.348.201 2.842a.777.777 0 0 1-.729.823l-.048.002Z" fill="#24A186"/><path d="M29.26 33.38c-5.925 0-10.744-4.82-10.744-10.745 0-5.925 4.82-10.744 10.744-10.744 5.925 0 10.745 4.82 10.745 10.744 0 5.925-4.82 10.745-10.745 10.745Zm0-19.934c-5.067 0-9.19 4.122-9.19 9.19 0 5.067 4.123 9.189 9.19 9.189 5.068 0 9.19-4.122 9.19-9.19 0-5.067-4.122-9.19-9.19-9.19Z" fill="#24A186"/><path d="M27.499 28.815h-.001a.778.778 0 0 1-.566-.245l-4.69-4.983a.779.779 0 0 1 1.133-1.066l4.125 4.383 8.132-8.587a.777.777 0 1 1 1.128 1.07l-8.696 9.185a.778.778 0 0 1-.565.243Z" fill="#24A186"/></svg><svg fill="none" viewBox="0 0 36 45" id="advantages3" xmlns="http://www.w3.org/2000/svg"><path d="M34.43 38.383H7.242a.68.68 0 0 1-.68-.68V1.68a.68.68 0 0 1 .68-.68h20.215a.68.68 0 0 1 .462.19c1.584 1.557 3.868 3.888 6.987 7.103a.68.68 0 0 1 .184.462v28.983a.68.68 0 0 1-.66.645ZM7.868 37.078H33.77V9.02c-2.896-2.99-5.05-5.186-6.587-6.701H7.868v34.76Z" fill="#24A186" stroke="#24A186" stroke-width=".4"/><path d="M34.448 9.418h-6.987a.68.68 0 0 1-.68-.68V1.683a.68.68 0 0 1 .408-.612.68.68 0 0 1 .74.136c3.005 3.1 5.323 5.437 6.893 7.007a.68.68 0 0 1 .286.544.68.68 0 0 1-.66.66Zm-6.328-1.32h4.718a502.033 502.033 0 0 1-4.718-4.805V8.1ZM28.324 44.499H1.68a.68.68 0 0 1-.68-.68V7.693a.68.68 0 0 1 .68-.68h5.553a.68.68 0 0 1 0 1.32H2.339V43.18h25.325v-5.437a.68.68 0 0 1 1.319 0v6.117a.68.68 0 0 1-.66.64v-.001Z" fill="#24A186" stroke="#24A186" stroke-width=".4"/><path d="M29.433 16.195H12.78a.68.68 0 0 1 0-1.318h16.653a.68.68 0 0 1 0 1.318ZM23.329 21.188H12.78a.68.68 0 0 1 0-1.319h10.549a.68.68 0 0 1 0 1.319ZM26.66 25.632H12.78a.68.68 0 0 1 0-1.319h13.88a.68.68 0 1 1 0 1.32ZM19.998 30.069H12.78a.68.68 0 0 1 0-1.319h7.218a.68.68 0 0 1 0 1.319Z" fill="#24A186" stroke="#24A186" stroke-width=".4"/></svg><svg fill="none" viewBox="0 0 8 7" id="arrow-down-orange" xmlns="http://www.w3.org/2000/svg"><path d="m8 .25-4 6.5-4-6.5h8Z" fill="#F95929"/></svg><svg fill="none" viewBox="0 0 20 20" id="arrow-left" xmlns="http://www.w3.org/2000/svg"><path d="m7.969 10 6.078 6.078-1.18 1.178-6.666-6.667a.833.833 0 0 1 0-1.178l6.667-6.667 1.179 1.178L7.969 10Z" fill="#18181B"/></svg><svg fill="none" viewBox="0 0 20 20" id="arrow-login" xmlns="http://www.w3.org/2000/svg"><path d="M13.33 16.666h.834a2.5 2.5 0 0 0 2.5-2.5V5.833a2.5 2.5 0 0 0-2.5-2.5h-.833M9.997 6.666l3.334 3.333m0 0-3.334 3.334m3.334-3.334h-10" stroke="#fff" stroke-width="2" stroke-linecap="round" stroke-linejoin="round"/></svg><svg fill="none" viewBox="0 0 20 20" id="arrow-right" xmlns="http://www.w3.org/2000/svg"><path d="M12.031 10 5.953 3.923l1.18-1.179 6.666 6.667a.833.833 0 0 1 0 1.178l-6.667 6.667-1.179-1.178L12.031 10Z" fill="#18181B"/></svg><svg fill="none" viewBox="0 0 8 7" id="arrow-top-green" xmlns="http://www.w3.org/2000/svg"><path d="m0 6.75 4-6.5 4 6.5H0Z" fill="#24A186"/></svg><svg fill="none" viewBox="0 0 119 26" id="badge-best" xmlns="http://www.w3.org/2000/svg"><path d="M8.207 0h103.537l6.112 8.424A5.996 5.996 0 0 1 119 11.948v3.287c0 1.142-.391 2.25-1.108 3.139L111.744 26H8.207l-7.163-7.855A4 4 0 0 1 0 15.45v-4.019a4 4 0 0 1 .908-2.537L8.207 0Z" fill="#8B5CF6"/></svg><svg fill="none" viewBox="0 0 106 26" id="badge-hit" xmlns="http://www.w3.org/2000/svg"><path d="M7.31 0h92.227l5.502 8.513c.627.97.961 2.102.961 3.257v3.62a4.996 4.996 0 0 1-.939 2.917L99.537 26H7.31L.895 18.102A4 4 0 0 1 0 15.58v-4.274a4 4 0 0 1 .77-2.36L7.31 0Z" fill="#FB5A5A"/></svg><svg fill="none" viewBox="0 0 85 26" id="badge-new" xmlns="http://www.w3.org/2000/svg"><path d="M5.862 0h73.955l4.51 8.702a6 6 0 0 1 .673 2.76v4.201a5 5 0 0 1-.667 2.495L79.817 26H5.862L.648 17.995A4 4 0 0 1 0 15.812v-4.726a4 4 0 0 1 .55-2.023L5.861 0Z" fill="#29AD2E"/></svg><svg fill="none" viewBox="0 0 128 26" id="badge-out" xmlns="http://www.w3.org/2000/svg"><path d="M8.828 0h111.367l6.535 8.373a6 6 0 0 1 1.27 3.691v3.07a4.998 4.998 0 0 1-1.223 3.276L120.195 26H8.828l-7.684-7.833A4 4 0 0 1 0 15.366v-3.853a4 4 0 0 1 1.001-2.647L8.828 0Z" fill="#E4E4E7"/></svg><svg fill="none" viewBox="0 0 24 22" id="cart" xmlns="http://www.w3.org/2000/svg"><g clip-path="url(#ama)"><path d="m17.35 15.883.029-.249c.32.037.63.122.92.249h-.95Zm0 0v.25h.897a2.994 2.994 0 0 0-.897-.25Zm-.694 0v.25h-.897c.282-.129.584-.214.897-.25Zm0 0-.029-.249c-.32.037-.63.122-.92.249h.949Zm-6.304 0 .029-.249c.32.037.63.122.92.249h-.95Zm0 0v.25h.896a2.994 2.994 0 0 0-.896-.25Zm-.694 0v.25H8.76c.282-.129.584-.214.897-.25Zm0 0-.03-.249c-.32.037-.63.122-.92.249h.95Zm1.596 2.957a1.249 1.249 0 1 1-2.498.018 1.249 1.249 0 0 1 2.498-.018Zm0 0-.25.001.25-.002Zm6.998 0a1.25 1.25 0 1 1-2.499.017 1.25 1.25 0 0 1 2.5-.017Zm0 0-.25.001.25-.002Zm5.35-14.302a.732.732 0 0 1 .117.65l-2.998 9.915a.75.75 0 0 1-.719.53H17.35l-.03.498a2.748 2.748 0 1 1-.635 0l-.029-.498h-6.304l-.03.498a2.748 2.748 0 1 1-.635 0l-.03-.498H7.005a.749.749 0 0 1-.72-.54L2.49 1.93l-.052-.179-.187-.001-2-.015.01-1.483 2.75.02h.001a.748.748 0 0 1 .715.538l3.791 13.165.052.18h11.872l.054-.177.907-2.996.097-.323H10.254V9.175H20.945l.054-.178.898-2.954.098-.322H8.255V4.237h14.746a.753.753 0 0 1 .602.3Z" fill="#71717A" stroke="#71717A" stroke-width=".5"/></g><defs><clipPath id="ama"><path fill="#fff" d="M0 0h24v21.818H0z"/></clipPath></defs></svg><svg fill="none" viewBox="0 0 16 16" id="ep_arrow-right" xmlns="http://www.w3.org/2000/svg"><path d="M6.111 4.106A.36.36 0 0 0 6 4.365c0 .097.04.19.111.259L10.098 8.5 6.11 12.375a.36.36 0 0 0-.111.26c0 .096.04.19.111.258a.373.373 0 0 0 .267.107.388.388 0 0 0 .267-.107l4.239-4.122A.378.378 0 0 0 11 8.5a.378.378 0 0 0-.116-.27l-4.24-4.123A.374.374 0 0 0 6.379 4a.39.39 0 0 0-.267.107v-.001Z" fill="#64748B"/></svg><svg fill="none" viewBox="0 0 16 16" id="favorite-heart" xmlns="http://www.w3.org/2000/svg"><path d="m8 2.85-.329-.286a4.309 4.309 0 0 0-2.991-1.06 4.316 4.316 0 0 0-2.906 1.281L8 2.85Zm0 0 .328-.286M8 2.85l.328-.286m0 0a4.308 4.308 0 0 1 2.99-1.061c1.091.04 2.13.495 2.905 1.277a4.415 4.415 0 0 1 1.274 2.94 4.422 4.422 0 0 1-1.033 3.016L8 15.29m.33-12.725-.33 12.725m0 0L1.526 8.748C.08 7.01.162 4.415 1.774 2.786L8 15.289Zm6.085-6.87.002-.002a3.908 3.908 0 0 0-.204-5.277 3.83 3.83 0 0 0-5.237-.191L8 3.511l-.645-.562a3.83 3.83 0 0 0-5.237.191 3.908 3.908 0 0 0-.204 5.277l.001.002.085.099.012.014.013.013 5.62 5.68.355.358.355-.359 5.62-5.68.013-.012.012-.014.084-.1Z" fill="#71717A" stroke="#71717A"/></svg><svg fill="none" viewBox="0 0 16 16" id="fluent_heart-20-filled" xmlns="http://www.w3.org/2000/svg"><path d="m7.422 15.723.393-.31c-.85-1.08-1.949-2.046-2.972-2.947l-.033-.028C2.568 10.466.5 8.61.5 5.776c0-1.297.421-2.363 1.11-3.101C2.297 1.939 3.277 1.5 4.46 1.5c.633 0 1.245.243 1.8.603.555.36 1.025.817 1.365 1.2L8 3.721l.373-.42c.34-.382.811-.84 1.366-1.199.556-.36 1.17-.603 1.803-.603 1.182 0 2.162.44 2.849 1.175.689.738 1.11 1.804 1.11 3.1 0 2.836-2.07 4.692-4.31 6.662l-.007.006c-1.032.906-2.14 1.881-3 2.97a.211.211 0 0 1-.163.087h-.042a.212.212 0 0 1-.164-.087l-.392.31Zm0 0a.711.711 0 0 0 .556.277h.042a.71.71 0 0 0 .556-.277L7.654 2.605C6.904 1.855 5.764 1 4.46 1 1.833 1 0 2.964 0 5.776c0 3.098 2.277 5.1 4.48 7.037l.015.013c1.035.912 2.105 1.853 2.927 2.897Z" stroke="#71717A"/></svg><svg fill="none" viewBox="0 0 16 16" id="fluent_heart-20-filled2" xmlns="http://www.w3.org/2000/svg"><path d="M11.541 1C10.017 1 8.714 2.166 8 2.97 7.283 2.166 5.983 1 4.459 1 1.834 1 0 2.964 0 5.776c0 3.098 2.277 5.1 4.48 7.037 1.04.915 2.116 1.861 2.942 2.91a.711.711 0 0 0 .556.277h.042a.71.71 0 0 0 .556-.277c.827-1.049 1.902-1.995 2.943-2.91C13.722 10.877 16 8.875 16 5.776 16 2.964 14.166 1 11.541 1Z" fill="#24A186"/></svg><svg fill="none" viewBox="0 0 28 24" id="heart" xmlns="http://www.w3.org/2000/svg"><path d="M19.46 2C15.375 2 14 5.624 14 5.624S12.625 2 8.54 2C4.46 2 2 5.891 2 9.099c0 5.375 12 13.567 12 13.567S26 14.476 26 9.1C26 5.89 23.542 2 19.46 2Z" stroke="#71717A" stroke-width="2.2"/></svg><svg fill="none" viewBox="0 0 152 40" id="logo" xmlns="http://www.w3.org/2000/svg"><path d="M69.39 7.111h3.693c1.602 0 2.81.23 3.625.69.814.461 1.222 1.256 1.222 2.384 0 .472-.085.898-.255 1.28a2.363 2.363 0 0 1-.721.935c-.317.241-.708.404-1.172.488v.085c.481.084.909.232 1.282.446.38.213.676.52.891.918.221.398.331.915.331 1.55 0 .752-.18 1.392-.543 1.92-.356.527-.868.928-1.536 1.203-.662.275-1.449.413-2.36.413h-4.456V7.111Zm2.038 5.078h1.952c.923 0 1.562-.149 1.919-.446.356-.298.534-.733.534-1.305 0-.584-.212-1.005-.636-1.263-.42-.259-1.087-.388-2.004-.388h-1.765v3.402Zm0 1.634v3.907h2.147c.951 0 1.619-.182 2.004-.547.384-.365.577-.859.577-1.482 0-.382-.088-.713-.263-.994-.17-.28-.45-.497-.84-.648-.391-.157-.917-.236-1.58-.236h-2.045ZM84.39 9.924c.837 0 1.556.171 2.156.514.6.342 1.06.828 1.383 1.457.323.628.484 1.38.484 2.256v1.062H82.14c.023.903.266 1.6.73 2.088.47.488 1.126.733 1.97.733.6 0 1.137-.057 1.612-.169a9.01 9.01 0 0 0 1.486-.513v1.608c-.47.219-.948.379-1.435.48-.487.101-1.07.151-1.748.151-.923 0-1.735-.176-2.437-.53a3.898 3.898 0 0 1-1.638-1.6c-.39-.707-.586-1.586-.586-2.636 0-1.044.179-1.931.535-2.661.357-.73.858-1.286 1.503-1.667.645-.382 1.397-.573 2.258-.573Zm0 1.49c-.629 0-1.138.203-1.528.607-.385.404-.611.996-.68 1.777h4.279a3.24 3.24 0 0 0-.238-1.238 1.798 1.798 0 0 0-.679-.842c-.3-.202-.685-.303-1.154-.303ZM96.978 16.762c0 .612-.15 1.128-.45 1.55-.3.42-.739.74-1.316.96-.571.213-1.273.32-2.105.32a8.737 8.737 0 0 1-1.698-.144c-.47-.09-.913-.23-1.332-.42v-1.71a9.52 9.52 0 0 0 1.502.539c.56.151 1.09.227 1.588.227.656 0 1.129-.1 1.417-.303a.97.97 0 0 0 .433-.825.87.87 0 0 0-.178-.54c-.114-.162-.329-.328-.645-.496-.312-.174-.77-.382-1.376-.623a11.5 11.5 0 0 1-1.502-.708c-.407-.236-.716-.519-.925-.85-.21-.337-.314-.767-.314-1.289 0-.825.328-1.45.984-1.878.662-.432 1.537-.648 2.623-.648.578 0 1.12.059 1.63.177a7.798 7.798 0 0 1 1.511.497l-.628 1.49a9.454 9.454 0 0 0-1.282-.454 4.625 4.625 0 0 0-1.299-.186c-.515 0-.908.079-1.18.236-.266.157-.398.382-.398.674 0 .219.065.404.195.556.13.151.353.303.67.454.323.152.77.34 1.341.564.56.214 1.045.438 1.452.674.413.23.73.514.95.85.221.338.332.773.332 1.306ZM102.631 17.991c.26 0 .518-.022.772-.067.255-.05.487-.11.697-.177v1.5a4.2 4.2 0 0 1-.858.243 5.796 5.796 0 0 1-1.095.102c-.532 0-1.01-.087-1.434-.262a2.09 2.09 0 0 1-1.01-.917c-.25-.433-.374-1.03-.374-1.794v-5.01h-1.282v-.885l1.375-.699.654-1.996h1.256v2.072h2.691v1.507h-2.691v4.986c0 .471.119.822.357 1.052.237.23.552.345.942.345ZM114.311 19.591c-.888 0-1.658-.17-2.309-.513-.651-.343-1.151-.868-1.502-1.575s-.527-1.606-.527-2.695c0-1.134.193-2.06.578-2.779.384-.718.916-1.249 1.595-1.591.685-.343 1.469-.514 2.352-.514.56 0 1.066.056 1.519.168.459.107.846.239 1.163.396l-.594 1.583a8.7 8.7 0 0 0-1.061-.353 4.094 4.094 0 0 0-1.044-.143c-.549 0-1.008.12-1.375.362-.363.241-.634.6-.815 1.078-.176.477-.263 1.07-.263 1.776 0 .685.09 1.264.271 1.735.181.466.45.82.807 1.061.356.236.795.354 1.315.354.515 0 .977-.062 1.384-.185a6.164 6.164 0 0 0 1.154-.48v1.718c-.356.202-.738.35-1.146.446-.407.101-.908.151-1.502.151ZM127.485 14.74c0 .776-.102 1.463-.306 2.064-.203.6-.5 1.109-.891 1.524-.39.41-.86.724-1.409.944-.549.213-1.169.32-1.859.32a4.771 4.771 0 0 1-1.774-.32 4.055 4.055 0 0 1-1.401-.944 4.322 4.322 0 0 1-.908-1.524c-.215-.6-.322-1.288-.322-2.063 0-1.027.178-1.898.534-2.61a3.8 3.8 0 0 1 1.545-1.643c.668-.376 1.463-.564 2.385-.564.866 0 1.63.188 2.292.564.662.376 1.18.924 1.554 1.642.373.719.56 1.59.56 2.61Zm-6.816 0c0 .68.082 1.261.246 1.744.17.483.43.853.781 1.112.351.252.803.379 1.358.379s1.007-.127 1.358-.38c.351-.258.608-.628.773-1.11.164-.484.246-1.065.246-1.744 0-.68-.082-1.255-.246-1.726-.165-.478-.422-.84-.773-1.087-.351-.252-.806-.379-1.366-.379-.827 0-1.429.275-1.808.826-.38.55-.569 1.338-.569 2.366ZM131.772 10.1v9.323h-1.995v-9.322h1.995Zm-.985-3.57c.305 0 .569.082.789.244.227.163.34.444.34.843 0 .393-.113.673-.34.842-.22.163-.484.244-.789.244-.317 0-.586-.081-.806-.244-.216-.169-.323-.45-.323-.842 0-.399.107-.68.323-.843.22-.162.489-.244.806-.244ZM139.53 9.924c1.058 0 1.882.272 2.47.817.594.539.891 1.406.891 2.602v6.08h-1.994v-5.71c0-.724-.15-1.265-.45-1.625-.3-.365-.764-.547-1.392-.547-.912 0-1.545.278-1.902.834-.351.555-.526 1.361-.526 2.416v4.632h-1.995v-9.322h1.554l.28 1.263h.11c.204-.326.456-.592.755-.8a3.407 3.407 0 0 1 1.019-.48c.379-.107.772-.16 1.18-.16ZM151.999 16.762c0 .612-.15 1.128-.45 1.55-.299.42-.738.74-1.315.96-.572.213-1.274.32-2.105.32a8.733 8.733 0 0 1-1.698-.144c-.47-.09-.914-.23-1.333-.42v-1.71c.447.207.948.387 1.503.539.56.151 1.089.227 1.587.227.656 0 1.129-.1 1.418-.303a.97.97 0 0 0 .433-.825.87.87 0 0 0-.179-.54c-.113-.162-.328-.328-.645-.496-.311-.174-.769-.382-1.375-.623a11.48 11.48 0 0 1-1.502-.708c-.408-.236-.716-.519-.926-.85-.209-.337-.314-.767-.314-1.289 0-.825.329-1.45.985-1.878.662-.432 1.536-.648 2.623-.648.577 0 1.12.059 1.63.177a7.812 7.812 0 0 1 1.511.497l-.629 1.49a9.425 9.425 0 0 0-1.281-.454 4.632 4.632 0 0 0-1.299-.186c-.515 0-.908.079-1.18.236-.266.157-.399.382-.399.674 0 .219.065.404.195.556.13.151.354.303.671.454.322.152.77.34 1.341.564a10.1 10.1 0 0 1 1.452.674c.413.23.73.514.95.85.221.338.331.773.331 1.306ZM70.703 26.858v5.84h-1.239v-5.84h1.24Zm-.611-2.237c.19 0 .353.051.49.153.14.102.21.278.21.528 0 .246-.07.422-.21.527a.798.798 0 0 1-.49.153.815.815 0 0 1-.501-.153c-.134-.105-.2-.281-.2-.527 0-.25.066-.426.2-.528a.816.816 0 0 1 .5-.153ZM75.52 26.747c.658 0 1.17.17 1.535.512.368.338.553.881.553 1.63v3.81h-1.239V29.12c0-.453-.093-.793-.279-1.018-.186-.229-.474-.343-.865-.343-.565 0-.959.174-1.18.522-.218.349-.327.853-.327 1.515v2.901h-1.239v-5.84h.965l.174.791h.068c.127-.204.283-.37.47-.5a2.1 2.1 0 0 1 .632-.302c.236-.066.48-.1.733-.1ZM84.318 31.802c.162 0 .321-.015.48-.043a3.86 3.86 0 0 0 .432-.11v.938c-.137.06-.315.111-.533.153a3.561 3.561 0 0 1-.68.064c-.33 0-.627-.055-.89-.164a1.303 1.303 0 0 1-.628-.575c-.154-.27-.231-.645-.231-1.123v-3.14h-.796v-.553l.854-.438.405-1.25h.78v1.297h1.671v.944h-1.67v3.124c0 .295.073.515.22.66.148.143.343.216.586.216ZM87.654 24.49v2.062c0 .215-.007.424-.02.628-.011.204-.024.362-.038.475h.069c.123-.204.274-.371.453-.502.18-.133.38-.233.601-.3.225-.067.464-.1.717-.1.446 0 .826.075 1.138.226.313.148.552.379.717.692.169.313.253.719.253 1.218v3.81h-1.238V29.12c0-.453-.093-.793-.28-1.018-.186-.229-.474-.343-.864-.343-.376 0-.675.08-.896.238-.218.154-.374.385-.47.69-.094.303-.142.672-.142 1.109v2.901h-1.238V24.49h1.238ZM95.603 26.747c.52 0 .966.108 1.339.322.372.215.659.519.859.913.2.394.3.865.3 1.414v.665h-3.895c.014.566.165 1.002.453 1.308.292.306.7.459 1.223.459a4.33 4.33 0 0 0 1.002-.106c.298-.074.606-.18.922-.322v1.008a4.034 4.034 0 0 1-.89.3 5.371 5.371 0 0 1-1.086.096c-.573 0-1.078-.11-1.513-.333A2.43 2.43 0 0 1 93.3 31.47c-.243-.443-.364-.994-.364-1.651 0-.654.11-1.21.332-1.667.221-.458.532-.806.933-1.045.4-.24.868-.359 1.402-.359Zm0 .934c-.39 0-.706.127-.949.38-.239.253-.38.624-.421 1.113h2.656a2.046 2.046 0 0 0-.148-.775 1.124 1.124 0 0 0-.421-.528c-.186-.127-.425-.19-.717-.19ZM107.072 32.693l-.737-2.717a49.65 49.65 0 0 1-.275-1.07c-.049-.205-.094-.393-.137-.565l-.089-.401h-.042a25.033 25.033 0 0 1-.217.966 49.5 49.5 0 0 1-.147.595c-.046.194-.088.359-.127.496l-.774 2.696h-1.36l-1.634-5.84h1.254l.759 2.901c.049.197.097.41.143.639a15.155 15.155 0 0 1 .205 1.166h.042c.014-.095.034-.215.058-.359.025-.148.053-.3.085-.459.031-.162.063-.313.094-.454.032-.144.062-.26.09-.348l.896-3.086h1.355l.859 3.086a12.167 12.167 0 0 1 .248 1.113c.038.2.063.368.073.501h.043c.014-.12.038-.28.073-.485.039-.207.083-.427.132-.66.049-.235.1-.453.153-.654l.775-2.901h1.233l-1.644 5.84h-1.387ZM116.27 29.765c0 .485-.063.916-.19 1.293a2.588 2.588 0 0 1-.553.955 2.435 2.435 0 0 1-.875.59c-.341.134-.726.2-1.154.2a2.94 2.94 0 0 1-1.102-.2 2.514 2.514 0 0 1-.87-.59 2.724 2.724 0 0 1-.564-.955 3.869 3.869 0 0 1-.2-1.293c0-.644.111-1.189.332-1.636a2.37 2.37 0 0 1 .959-1.028c.415-.236.909-.354 1.482-.354.537 0 1.012.118 1.423.354.411.235.732.578.964 1.029.232.45.348.995.348 1.635Zm-4.232 0c0 .426.051.79.153 1.092.105.303.267.535.484.697.218.158.499.237.844.237.344 0 .625-.08.843-.238a1.39 1.39 0 0 0 .48-.696c.102-.302.153-.666.153-1.092 0-.426-.051-.786-.153-1.082-.102-.299-.262-.525-.48-.68-.218-.158-.501-.238-.848-.238-.514 0-.888.173-1.123.517-.236.345-.353.84-.353 1.483ZM120.65 26.747a3.584 3.584 0 0 1 .622.058l-.116 1.161a1.553 1.553 0 0 0-.274-.047c-.105-.011-.2-.016-.284-.016-.222 0-.433.037-.633.11-.2.07-.378.18-.532.328a1.49 1.49 0 0 0-.364.543 2.02 2.02 0 0 0-.132.76v3.054h-1.244v-5.84h.97l.169 1.029h.058c.116-.208.26-.398.432-.57.172-.172.369-.31.59-.411.225-.106.471-.159.738-.159ZM123.597 32.698h-1.244V24.49h1.244v8.21ZM127.329 32.804c-.696 0-1.255-.253-1.677-.76-.418-.51-.627-1.26-.627-2.253 0-1.002.213-1.76.638-2.274.429-.513.993-.77 1.692-.77.295 0 .553.04.775.122.221.077.411.183.569.316.162.134.299.283.411.449h.058a12.834 12.834 0 0 1-.063-.47 5.75 5.75 0 0 1-.032-.575v-2.1h1.244v8.21h-.97l-.221-.797h-.053a1.859 1.859 0 0 1-.97.78 2.22 2.22 0 0 1-.774.122Zm.347-1.008c.531 0 .905-.153 1.123-.459.218-.306.33-.765.338-1.377v-.163c0-.655-.106-1.156-.317-1.504-.211-.352-.595-.527-1.154-.527-.446 0-.787.18-1.023.543-.232.359-.348.86-.348 1.503 0 .644.116 1.136.348 1.478.236.337.58.506 1.033.506Z" fill="#2B495A"/><g clip-path="url(#asa)"><path d="M3.984 1.44C14.168-.463 24.77-.622 34.878 1.822c1.775 2.977 3.262 6.153 4.105 9.535 3.157-1.645 6.74-2.211 10.247-2.47 3.376-.164 6.813-.055 10.078.892 1.877.587 3.918 1.505 4.819 3.38.837 1.964-.149 4.105-1.32 5.695-2.391 3.185-5.621 5.59-8.837 7.863-3.373 2.28-6.854 4.426-10.527 6.174 1.825-2.17 3.641-4.429 4.7-7.094.16-.306.241-.716.6-.857 3.484-1.898 7.008-3.983 9.57-7.09 1.065-1.348 2.073-3.272 1.14-4.959-1.186-1.944-3.603-2.499-5.684-2.839-4.939-.607-9.918.261-14.717 1.408.91 3.974 1.193 8.069.998 12.137-1.202-6.38-2.904-12.765-6.216-18.393-7.56-2.003-15.468-2.37-23.235-1.74 4.772 4.344 7.58 10.468 8.816 16.745.96 4.652 1.207 9.424 1.195 14.164-1.061-6.342-2.335-12.75-5.186-18.56C12.78 10.213 8.77 5.32 3.984 1.44Z" fill="#24A186"/><path d="M4.172 8.829c1.137-.537 2.274-1.085 3.408-1.63 3.484 3.34 6.186 7.473 8.029 11.94 1.784 4.311 2.819 8.901 3.498 13.512-.507-1.288-.807-2.646-1.286-3.942-2.154-6.306-5.58-12.245-10.37-16.894-1.023-1.074-2.16-2.021-3.28-2.986ZM24.689 8.283c.656-.159 1.312-.323 1.97-.484.178.73.344 1.46.496 2.194 1.271-.05 2.545.105 3.746.53a103.5 103.5 0 0 0-.641 2.353c-1.47-.557-3.225-.848-4.662-.053-.723.34-1.02 1.402-.452 2.01.58.58 1.487.477 2.24.553 1.64.091 3.559-.093 4.85 1.144 1.123 1.379 1.306 3.673.006 5.004-.586.69-1.42 1.065-2.224 1.417.13.595.241 1.194.335 1.798-.66.129-1.312.273-1.962.434-.132-.595-.26-1.188-.391-1.78-1.53.123-3.067-.088-4.525-.563.172-.845.38-1.681.618-2.508 1.822.715 4.05 1.094 5.802.009.825-.476.653-1.833-.271-2.068-1.895-.569-4.009-.026-5.83-.91-1.313-.636-1.616-2.296-1.485-3.619.184-1.566 1.487-2.686 2.846-3.285-.158-.724-.315-1.449-.467-2.176Z" fill="#24A186"/><path d="M2.937 13.48c.886-.636 1.781-1.26 2.67-1.891 4.574 3.971 7.74 9.356 9.98 14.947.687 1.906 1.55 3.783 1.88 5.795-1.627-3.73-3.63-7.309-6.096-10.55-2.3 1.84-4.487 3.895-6.085 6.391-.827 1.352-1.417 3.144-.653 4.652.988 1.64 2.974 2.185 4.714 2.593 4.073.762 8.417.566 12.26-1.094 4.054-1.736 7.491-4.57 11.115-7.034 1.154-.765 2.466-1.66 3.921-1.399.385.499-.035 1.083-.385 1.464-1.373 1.355-3.282 2.188-4.291 3.895-.493.798.522 1.46 1.245 1.332 3.77-.2 6.822-2.76 9.332-5.365.942-.886 1.935-2.17 3.387-1.933.225 1.02-.224 1.995-.798 2.81-3.19 4.285-7.563 7.737-12.609 9.509-4.895 1.775-10.13 2.44-15.314 2.396-3.703-.055-7.422-.475-10.988-1.516-1.956-.607-3.982-1.42-5.311-3.06C0 34.35-.21 32.804.199 31.479c.575-1.989 2.032-3.54 3.513-4.907 2.254-2.015 4.872-3.57 7.566-4.913-2.368-3.118-5.216-5.84-8.341-8.177Z" fill="#2B495A"/></g><defs><clipPath id="asa"><path fill="#fff" d="M0 0h64.435v40H0z"/></clipPath></defs></svg><svg fill="none" viewBox="0 0 16 2" id="minus" xmlns="http://www.w3.org/2000/svg"><rect width="16" height="2" rx="1" fill="#18181B"/></svg><svg fill="none" viewBox="0 0 16 16" id="plus" xmlns="http://www.w3.org/2000/svg"><g fill="#18181B"><rect y="7" width="16" height="2" rx="1"/><rect x="9" width="16" height="2" rx="1" transform="rotate(90 9 0)"/></g></svg><svg fill="none" viewBox="0 0 24 24" id="search" xmlns="http://www.w3.org/2000/svg"><g clip-path="url(#ava)"><path d="m23.833 21.978-5.69-5.69a.555.555 0 0 0-.4-.165h-.619a9.748 9.748 0 1 0-1.003 1.003v.619c0 .15.06.293.164.4l5.691 5.69a.563.563 0 0 0 .8 0l1.059-1.058a.564.564 0 0 0-.002-.8Zm-14.085-4.73a7.5 7.5 0 1 1 0-15 7.5 7.5 0 0 1 0 15Z" fill="#71717A"/></g><defs><clipPath id="ava"><path fill="#fff" d="M0 0h24v24H0z"/></clipPath></defs></svg><svg fill="none" viewBox="0 0 16 16" id="star" xmlns="http://www.w3.org/2000/svg"><path fill-rule="evenodd" clip-rule="evenodd" d="M15.655 7.34a1.37 1.37 0 0 0 .28-1.327 1.292 1.292 0 0 0-.975-.902l-3.726-.768a.386.386 0 0 1-.258-.197L9.124.687A1.265 1.265 0 0 0 8 0c-.472 0-.892.257-1.122.687l-1.853 3.46a.385.385 0 0 1-.259.196l-3.726.768a1.292 1.292 0 0 0-.975.902 1.367 1.367 0 0 0 .28 1.327l2.583 2.905a.409.409 0 0 1 .098.317l-.45 3.935a1.35 1.35 0 0 0 .521 1.245c.227.17.488.258.752.258.184 0 .369-.042.544-.127L7.84 14.21a.368.368 0 0 1 .32 0l3.448 1.663a1.228 1.228 0 0 0 1.296-.132 1.35 1.35 0 0 0 .522-1.244l-.451-3.933a.406.406 0 0 1 .1-.319l2.58-2.905Z" fill="#FFC100"/></svg><svg fill="none" viewBox="0 0 32 32" id="to-cart" xmlns="http://www.w3.org/2000/svg"><g stroke="#24A186" stroke-width="2" stroke-linecap="round" stroke-linejoin="round"><path d="M11 27a1 1 0 1 0 0-2 1 1 0 0 0 0 2ZM25 27a1 1 0 1 0 0-2 1 1 0 0 0 0 2ZM3 5h4l3 17h16"/><path d="M10 18h15.59a.5.5 0 0 0 .49-.402l1.8-9A.5.5 0 0 0 27.39 8H8"/></g></svg><svg fill="none" viewBox="0 0 32 32" id="to-delete" xmlns="http://www.w3.org/2000/svg"><path d="m24.75 9.889-1.084 14.84C23.572 26.01 22.484 27 21.172 27H10.828c-1.312 0-2.4-.991-2.494-2.27L7.25 9.889m6.25 4.889v7.333m5-7.333v7.333M19.75 9.89V6.222C19.75 5.547 19.19 5 18.5 5h-5c-.69 0-1.25.547-1.25 1.222V9.89m-6.25 0h20" stroke="#CD2028" stroke-width="2" stroke-linecap="round" stroke-linejoin="round"/></svg><svg fill="none" viewBox="0 0 26 25" id="to-favorite" xmlns="http://www.w3.org/2000/svg"><path d="M18.46 3C14.375 3 13 6.624 13 6.624S11.625 3 7.54 3C3.46 3 1 6.891 1 10.099c0 5.375 12 13.567 12 13.567s12-8.19 12-13.566C25 6.89 22.542 3 18.46 3Z" stroke="#24A186" stroke-width="1.6"/></svg><svg fill="none" viewBox="0 0 24 24" id="to-favorite-active" xmlns="http://www.w3.org/2000/svg"><path d="M17.46 3C13.375 3 12 6.624 12 6.624S10.625 3 6.54 3C2.46 3 0 6.891 0 10.099c0 5.375 12 13.567 12 13.567s12-8.19 12-13.566C24 6.89 21.542 3 17.46 3Z" fill="#24A186"/></svg></svg>